# xmcd
#
# Track frame offsets: 
#        150
#        23937
#        40344
#        55566
#        74291
#        92045
#        107063
#        123799
#        136864
#        151505
#        174202
#        193257
#        210000
#
# Disc length: 2990 seconds
#
# Revision: 0
# Processed by: cddbd v1.5.1PL0 Copyright (c) Steve Scherf et al.
# Submitted via: ExactAudioCopy v0.95a5
#
DISCID=9b0bac0d
DTITLE=Wierzcholski and Karolak - Piatek wieczorem
DYEAR=2004
DGENRE=Blues
TTITLE0=Czas - twoj wrog
TTITLE1=Piatek wieczorem
TTITLE2=Ostatni bilans
TTITLE3=Trudne chwile
TTITLE4=Czarno-bialy film
TTITLE5=Wlasnie ten dzien
TTITLE6=Polski blues
TTITLE7=Dmuchawiec
TTITLE8=Szpakowaty Pan
TTITLE9=Blues dla zmartwionych
TTITLE10=Ostatni polski bluesman
TTITLE11=19 kwietnia
TTITLE12=Summertime
EXTD=
EXTT0=
EXTT1=
EXTT2=
EXTT3=
EXTT4=
EXTT5=
EXTT6=
EXTT7=
EXTT8=
EXTT9=
EXTT10=
EXTT11=
EXTT12=
PLAYORDER=
